<?xml version="1.0" encoding="UTF-8"?><svg id="Layer_2" xmlns="http://www.w3.org/2000/svg" viewBox="0 0 88 88"><defs><style>.cls-1{fill:#d64113;}</style></defs><g id="Layer_1-2"><circle class="cls-1" cx="44" cy="44" r="44"/><path d="M42.5,59.79c-.8-2.29,2.36-3.4,3.12-1.75.52,1.12.52,5.45-1.32,5.57-4.8-.53-11.1.76-15.71-.01-.9-.15-1.8-.83-1.8-1.9,0-1.95,13.3-13.89,14.75-16.73l-14.72-16.46c-.05-1.46.82-2.04,2.07-2.19,4.49-.57,10.09.36,14.7.09l.81.35c.67,2.16,1.29,6.97-2.22,5.67l-.65-2.27h-8.53l11.27,12.17,13.82-14.96c1.82-1.79,4.14.68,2.46,2.61l-13.78,14.99c0,1.36,14.49,14.54,14.69,16.43.12,1.15-.85,2.35-1.97,2.16-1.88-.32-12.85-13.86-15.2-15.95l-11.27,12.17h9.51Z"/></g></svg>