<?xml version="1.0" encoding="UTF-8"?><svg id="Layer_2" xmlns="http://www.w3.org/2000/svg" viewBox="0 0 401.56 193"><defs><style>.cls-1{fill:#d64113;}</style></defs><g id="Layer_1-2"><path d="M89.1,191.35h-10.63c-7.79-3.52-13.96-6.96-16.7-15.66-2.46-7.8-2.36-41.19.26-48.93,6.11-18.01,31.72-20.39,41.77-4.63,4.29,6.72,6.8,22.08-4.59,21.61-8.4-.35-5.85-6.79-7.4-11.78-2.12-6.83-12.98-7.25-15-1.06-1.35,4.15-1.04,31.98-.52,37.71.44,4.85,1.54,7.58,6.97,7.95,12.74.87,5.82-14.11,13.2-16.53,13.68-4.49,12.34,13.22,7.33,21.07-3.47,5.44-8.83,8.18-14.71,10.23Z"/><path d="M299.1,191h-10.63c-7.79-3.52-13.96-6.96-16.7-15.66-2.46-7.8-2.36-41.19.26-48.93,6.11-18.01,31.72-20.39,41.77-4.63,4.29,6.72,6.8,22.08-4.59,21.61-8.4-.35-5.85-6.79-7.4-11.78-2.12-6.83-12.98-7.25-15-1.06-1.35,4.15-1.04,31.98-.52,37.71.44,4.85,1.54,7.58,6.97,7.95,12.74.87,5.82-14.11,13.2-16.53,13.68-4.49,12.34,13.22,7.33,21.07-3.47,5.44-8.83,8.18-14.71,10.23Z"/><path d="M159.54,127.8v15.89h15.41c8.42,0,8.55,14.83,2.13,14.83h-17.53v15.89h17.53c5.3,0,9.26,12.5,1.9,14.61-2.59.74-26.39.78-29.5.2-1.96-.36-3.17-1.66-4.25-3.17l-.61-66.23c0-2.68,2.21-5.25,4.86-5.74,3.13-.58,26.9-.55,29.5.2,6.78,1.94,3.61,13.55.22,13.55h-19.66Z"/><path d="M159.41,91.07c5.74-.81,24.53,3.58,19.94,12.49-3.19,6.2-13.29-.57-17.2-.77-4.23-.22-17.78,8.7-18.4-1.97-.33-5.79,10.87-9.07,15.66-9.75Z"/><path d="M78.13,4.42c12.05-2.06,26.08,5.66,27.82,18.37.98,7.17,1.13,38.56-.36,45-5,21.52-42.89,21.46-46.2-2.81-1.03-7.54-1.12-36.9.38-43.93,1.69-7.95,10.46-15.28,18.37-16.63ZM80.25,19.2c-3.18.69-5.53,3.61-6.02,6.74-1.01,6.47-.89,28.18-.09,34.92,1.29,10.83,14.74,11.08,16.8,1.87,1.15-5.14.94-29.92.25-35.81-.69-5.89-5.03-9-10.94-7.71Z"/><path d="M228.01,33.54c-3.32-3.1-.85-13.32-8.29-14.56-8.88-1.49-14.19,10.08-6.56,15.08,9.86,6.47,25.84,2.68,28.31,20.51,2.76,19.9-11.07,34.3-31.32,28.04-12.57-3.88-20.87-26.91-9.26-29.51,10.98-2.46,8.26,8.6,11.02,12.93,3.39,5.3,13.87,3.79,14.75-3.18,1.45-11.41-11.47-10.96-18.76-14.01-26.46-11.08-11.17-54.77,19.53-42.77,9.31,3.64,15.69,14.95,12.84,24.88-1.28,4.45-9.35,5.3-12.25,2.59Z"/><path d="M19.5,4.42c9.51-1.63,20.65,2.74,25.15,11.5,3.57,6.95,5.95,20.22-5.22,20.13-8.11-.06-5.99-5.65-7.39-10.74-2.3-8.37-13.37-8.64-15.8-.85-1.52,4.85-1.37,29.44-.7,35.31.81,7.15,6.72,12.92,13.31,7.97,5.77-4.34,1.18-14.01,8.71-15.7,8.59-1.93,10.49,5.85,9.58,12.75-3.33,25.21-43.13,25.61-46.36-.9C-.25,55.47-.38,30.14,1.14,22.12,2.8,13.36,10.64,5.93,19.5,4.42Z"/><rect x="118.31" y="112" width="15" height="80" rx="7.5" ry="7.5"/><rect x="328.31" y="112" width="15" height="80" rx="7.5" ry="7.5"/><path d="M401.56,134.5c0-12.43-10.3-22.5-23-22.5s-23,10.07-23,22.5c0,.53.02,1.04.06,1.56-.04.29-.06.58-.06.88v47.56c0,4.12,3.38,7.5,7.5,7.5s7.5-3.38,7.5-7.5v-19.5h16v19.5c0,4.12,3.38,7.5,7.5,7.5s7.5-3.38,7.5-7.5v-47.56c0-.3-.02-.59-.06-.88.04-.52.06-1.04.06-1.56ZM388.06,134.5v16.5h-19v-17h.03c.26-4.99,4.42-9,9.47-9s9.21,4.01,9.47,9h.03v.5Z"/><path d="M258.31,119.5c0-4.12-3.38-7.5-7.5-7.5-2.77,0-5.2,1.53-6.5,3.78v56.72c0,3.02-2.48,5.5-5.5,5.5h0c-3.02,0-5.5-2.47-5.5-5.5v-42c0-.17-.01-.34-.03-.5,0-.17.03-.33.03-.5,0-10.22-8.51-18.5-19-18.5s-19,8.28-19,18.5c0,.38.04.75.06,1.12-.03.29-.06.58-.06.88v53c0,4.12,3.38,7.5,7.5,7.5,2.77,0,5.2-1.53,6.5-3.78v-57.72c0-3.02,2.48-5.5,5.5-5.5s5.5,2.47,5.5,5.5v16.54h0s0,27.44,0,27.44c0,0,0,0,0,0v.02s0,0,0,0v1.99c0,1.04.25,2.02.69,2.9,2.21,7.84,9.56,13.6,18.3,13.6,10.49,0,19-8.28,19-18.5,0-.17-.02-.33-.03-.5.01-.17.03-.33.03-.5v-54Z"/><path d="M182.31,11.5c0-4.12-3.38-7.5-7.5-7.5-2.77,0-5.2,1.53-6.5,3.78v56.72c0,3.02-2.48,5.5-5.5,5.5h0c-3.02,0-5.5-2.47-5.5-5.5V22.5c0-.17-.01-.34-.03-.5,0-.17.03-.33.03-.5,0-10.22-8.51-18.5-19-18.5s-19,8.28-19,18.5c0,.38.04.75.06,1.12-.03.29-.06.58-.06.88v53c0,4.12,3.38,7.5,7.5,7.5,2.77,0,5.2-1.53,6.5-3.78V22.5c0-3.02,2.48-5.5,5.5-5.5s5.5,2.47,5.5,5.5v16.54h0s0,27.44,0,27.44c0,0,0,0,0,0v.02s0,0,0,0v1.99c0,1.04.25,2.02.69,2.9,2.21,7.84,9.56,13.6,18.3,13.6,10.49,0,19-8.28,19-18.5,0-.17-.02-.33-.03-.5.01-.17.03-.33.03-.5V11.5Z"/><circle class="cls-1" cx="295.56" cy="44" r="44"/><path d="M294.07,59.79c-.8-2.29,2.36-3.4,3.12-1.75.52,1.12.52,5.45-1.32,5.57-4.8-.53-11.1.76-15.71-.01-.9-.15-1.8-.83-1.8-1.9,0-1.95,13.3-13.89,14.75-16.73l-14.72-16.46c-.05-1.46.82-2.04,2.07-2.19,4.49-.57,10.09.36,14.7.09l.81.35c.67,2.16,1.29,6.97-2.22,5.67l-.65-2.27h-8.53l11.27,12.17,13.82-14.96c1.82-1.79,4.14.68,2.46,2.61l-13.78,14.99c0,1.36,14.49,14.54,14.69,16.43.12,1.15-.85,2.35-1.97,2.16-1.88-.32-12.85-13.86-15.2-15.95l-11.27,12.17h9.51Z"/></g></svg>